<svg width="868" height="260" viewBox="0 0 868 260" fill="none" xmlns="http://www.w3.org/2000/svg">
<g clip-path="url(#clip0_3_24)">
<path d="M252.403 3.60992C255.908 3.67242 258.861 3.72038 260.097 7.57848C262.276 14.3822 264 21.4844 265.854 28.3857L276.448 67.8452C278.265 74.6395 280.231 83.1305 282.396 89.6199C282.826 63.0837 300.035 26.1407 322.422 11.1017C334.555 2.9513 345.101 3.70456 358.945 3.68642L385.543 3.67872C390.462 3.67528 409.885 3.39243 413.713 4.19285L413.954 4.82465C413.377 6.29693 408.397 7.84985 406.027 9.52293C403.624 11.1974 401.547 13.2976 399.899 15.7198C391.875 27.4756 394.115 55.6124 394.114 70.2581L394.105 137.691L394.096 196.011C394.097 212.804 390.63 240.664 406.738 250.706C408.982 252.105 411.418 253.19 413.619 254.691C413.355 255.331 413.305 255.626 412.631 255.936C410.697 256.824 350.653 256.906 348.305 255.999C347.792 255.801 347.788 255.531 347.569 255.054C348.724 253.48 356 250.446 358.796 247.146C362.748 242.515 365.284 236.842 366.102 230.807C367.42 221.546 366.994 206.949 366.991 197.125L366.977 144.145L366.989 76.5634C366.989 66.169 367.47 49.5815 366.683 39.7281C357.034 77.3969 346.325 115.365 336.338 153.016C326.582 186.947 318.49 222.611 308.513 256.334C305.778 256.587 302.411 256.47 299.622 256.45C296.486 245.63 293.819 234.638 290.831 223.772C273.843 161.994 258.442 99.5669 241.183 37.8854C241.148 38.6792 241.131 39.4737 241.131 40.2683L241.111 147.346L241.094 190.998C241.092 202.423 240.924 213.855 241.387 225.289C241.802 235.577 245.293 245.986 254.767 251.32C256.418 252.249 258.875 253.584 260.174 254.901L260.158 255.545C256.178 257.865 215.484 255.69 208.335 256.472C206.435 256.68 197.035 256.357 194.877 256.026C193.615 253.908 200.552 251.554 201.952 250.515C217.165 239.223 214.005 214.51 213.988 197.509L213.963 150.216L213.975 75.5994C213.976 62.5705 214.091 49.5256 213.864 36.4774C213.523 26.0005 210.515 14.5576 200.968 8.79505C199.343 7.81431 194.201 6.3438 194.823 4.14638C197.687 3.50068 210.37 3.6951 214.047 3.69288L252.403 3.60992ZM312.647 202.585L314.995 211.746C318.607 196.741 322.978 181.209 326.967 166.25L347.404 89.6406L355.67 58.693C358.512 48.0232 365.757 25.0843 359.765 15.2127C357.999 12.3503 355.156 10.3195 351.878 9.57794C350.529 9.26386 347.642 8.9975 346.227 9.04207C331.077 10.3439 322.262 16.3435 312.365 27.9884C295.293 48.0746 285.901 81.0297 287.58 107.117C287.952 112.888 293.511 130.95 295.226 137.666C300.74 159.254 307.151 180.991 312.647 202.585Z" fill="#FEFEFE" style="fill:#FEFEFE;fill:color(display-p3 0.9961 0.9961 0.9961);fill-opacity:1;"/>
<path d="M687.398 3.90422C698.664 3.19177 713.578 3.90324 725.166 3.66572C731.4 3.53791 748.188 3.35495 753.465 4.01359L753.944 4.69401C753.045 6.79195 748.29 7.84034 746.2 9.30071C734.024 17.7993 734.053 33.5313 734.066 46.8233C734.075 54.6305 734.087 62.4246 734.1 70.2242L734.096 135.18L734.075 195.671C734.075 207.156 733.663 219.991 735.058 231.365C735.893 238.131 740.326 246.648 746.128 250.541C748.141 251.892 751.375 252.89 753.766 254.611L753.906 255.871C748.938 257.077 694.112 256.933 687.784 256.026L687.555 255.175C689.026 252.686 697.96 250.346 701.537 243.489C709.471 228.273 707.026 208.165 707.005 191.241L707.03 130.39L707.026 67.0495C707.03 56.9362 707.645 34.6464 705.598 25.6953C704.085 18.8325 699.948 12.8352 694.069 8.9871C691.632 7.41959 687.996 6.60978 687.398 3.90422Z" fill="#FEFEFE" style="fill:#FEFEFE;fill:color(display-p3 0.9961 0.9961 0.9961);fill-opacity:1;"/>
<path d="M542.14 0H559.284C563.869 1.0195 569.438 1.03241 574.164 1.78544C598.386 5.61133 621.268 17.4624 638.459 34.9343C640.871 37.3847 647.236 43.188 644.333 46.4611C639.569 51.827 632.847 58.0797 627.749 63.0303L592.919 97.1026L514.663 173.68C499.626 188.455 484.461 203.13 469.466 217.953C467.961 219.297 465.249 222.016 463.342 222.462C459.383 223.385 454.912 216.467 452.979 213.873C419.651 169.094 417.493 102.227 446.829 54.9508C462.837 29.0311 488.492 10.548 518.13 3.57733C522.474 2.55501 526.272 1.86506 530.658 1.32715C533.998 0.917164 539.037 0.728509 542.14 0ZM512.501 165.746C525.788 153.124 538.914 140.33 551.871 127.368C565.87 113.871 579.78 100.282 593.601 86.6042C598.581 81.6909 620.675 61.1458 622.981 56.6664C623.133 50.896 616.971 44.2814 613.373 40.0993C594.847 18.5861 569.095 4.30217 540.131 6.3999C539.071 6.47629 537.99 6.3929 536.884 6.53253C447.448 13.5036 436.551 119.517 466.965 185.546C467.665 187.066 469.123 188.833 470.398 189.931C481.511 198.361 489.733 188.353 497.049 181.128C502.232 176.034 507.382 170.906 512.501 165.746Z" fill="#FEFEFE" style="fill:#FEFEFE;fill:color(display-p3 0.9961 0.9961 0.9961);fill-opacity:1;"/>
<path d="M86.4241 3.64799C89.7015 3.56227 92.2403 3.50899 95.5177 3.72566C101.038 22.8167 106.05 42.8326 111.16 62.0853L138.115 163.587L148.64 203.239C153.014 219.718 156.856 241.571 173.694 250.519C175.916 251.7 179.993 253.607 181.758 255.215L181.643 255.651C177.727 256.787 118.607 257.119 115.688 255.773C116.407 252.315 125.665 251.351 127.313 241.426C129.382 228.968 126.062 221.736 123.284 209.825C120.208 196.64 115.592 183.056 112.847 169.859C110.95 196.039 98.9787 225.59 79.3762 243.608C63.5696 258.137 47.9502 256.751 27.9603 256.435C23.6008 256.366 2.19318 257.257 0 255.427V254.827C2.23823 253.453 4.61193 252.583 6.94061 251.395C24.639 242.37 28.5661 221.631 33.1726 204.253L40.3712 177.063L71.5456 59.7156L81.5238 22.0339C82.7817 17.2801 84.9301 7.92596 86.4241 3.64799ZM59.238 249.259C92.178 237.437 108.304 188.628 107.799 156.774C107.659 147.905 103.189 134.21 100.787 125.315L89.9084 84.9475L83.6603 61.4626C83.1301 59.4717 80.9029 50.3208 80.0162 48.964L47.7531 169.941L38.3377 205.2C36.4312 212.342 33.6723 220.559 32.8865 227.821C30.6154 248.807 41.1957 253.782 59.238 249.259Z" fill="#FEFEFE" style="fill:#FEFEFE;fill:color(display-p3 0.9961 0.9961 0.9961);fill-opacity:1;"/>
<path d="M739.381 90.4363C743.818 85.7198 749.341 80.5771 754.024 75.9523L783.298 47.032C791.003 39.4179 802.006 29.5635 807.388 20.4701C814.564 8.35089 804.977 8.21873 803.845 4.34939C805.409 3.1116 847.046 3.3795 848.258 4.62258C848.245 4.99693 848.36 5.47592 848.025 5.58187C821.438 13.9917 804.803 32.3716 785.909 51.9852C777.958 60.1296 769.913 68.1794 761.772 76.1329C767.239 86.5609 773.351 100.823 778.441 111.814L809.045 177.862L820.641 202.973C826.91 216.531 831.432 227.879 841.837 239.013C850.856 248.664 856.925 249.616 868 254.549V255.684C859.634 257.608 846.029 256.168 837.111 256.506C815.814 257.313 809.321 240.508 802.052 224.875L788.863 196.455C772.592 161.425 756.126 125.159 739.381 90.4363Z" fill="#FEFEFE" style="fill:#FEFEFE;fill:color(display-p3 0.9961 0.9961 0.9961);fill-opacity:1;"/>
<path d="M652.183 52.1837C655.251 55.7804 658.392 61.8953 660.468 66.1456C671.708 89.5723 676.51 115.571 674.383 141.471C671.683 175.564 657.9 209.03 631.517 231.53C616.255 244.585 597.907 253.512 578.22 257.46C573.863 258.368 564.425 259.092 561.445 260H538.885C535.011 258.978 530.874 258.722 526.916 258.102C506.61 254.926 484.393 245.222 469.271 231.123C472.297 228.003 481.075 218.245 484.652 217.237C487.059 217.708 492.921 224.679 495.078 226.695C504.512 235.647 516.384 244.357 528.73 248.729C553.583 257.531 584.904 255.038 607.032 240.159C656.272 207.05 657.624 132.902 638.065 82.6274C636.586 78.8165 634.984 75.0505 633.36 71.3053C635.776 67.4868 648.453 55.6048 652.183 52.1837Z" fill="#FEFEFE" style="fill:#FEFEFE;fill:color(display-p3 0.9961 0.9961 0.9961);fill-opacity:1;"/>
</g>
<defs>
<clipPath id="clip0_3_24">
<rect width="868" height="260" fill="white" style="fill:white;fill-opacity:1;"/>
</clipPath>
</defs>
</svg>
