<svg width="135" height="139" viewBox="0 0 135 139" fill="none" xmlns="http://www.w3.org/2000/svg">
<g clip-path="url(#clip0_3_6)">
<path d="M79.2562 0H89.5221L89.6348 0.0364574C90.5864 0.335719 92.5318 0.599479 93.5579 0.714332C102.793 1.73432 111.678 6.43829 118.51 12.6019C119.626 13.609 123.12 16.8452 122.361 18.1636C120.939 20.6354 116.737 24.0697 114.72 26.0486L92.6481 47.6551L36.6923 102.428C33.8327 105.221 16.6472 122.668 14.848 123.395C14.5333 123.522 14.2441 123.481 13.9422 123.341C12.8677 122.841 11.903 121.544 11.1843 120.632C7.54586 116.013 4.88343 110.765 2.97873 105.212C2.20136 102.946 1.61599 100.567 1.11741 98.2254C0.759559 96.5443 0 93.5018 0 92.0227V80.2576C0.517402 79.4568 0.812966 75.1611 1.05132 74.0118C2.22077 68.3728 3.98028 63.4837 6.70122 58.4186C12.0201 48.4718 20.8121 40.8292 31.4023 36.9466C32.5613 36.5167 36.0321 35.8303 36.9156 35.0691C37.5483 34.1486 37.8934 32.3066 38.2486 31.3058C43.68 15.9947 56.6939 4.36691 72.6791 1.16802C74.7542 0.752759 77.0834 0.677211 79.1472 0.0346728L79.2562 0ZM82.8666 45.6806C84.1519 46.9171 85.8701 48.4306 86.8199 49.9009C87.5609 48.3482 90.3338 46.0084 91.658 44.6839L106.437 30.172C108.105 28.531 113.19 23.9661 113.894 22.1887C112.977 20.0267 111.489 18.2407 109.981 16.4511C105.928 11.6399 100.578 7.35206 94.7506 4.8965C90.0487 2.9151 86.008 2.42231 80.9735 2.42382C79.4306 2.52733 76.5829 2.64534 75.1443 2.88085C67.4118 4.14748 60.3554 8.0498 55.1719 13.9259C51.1661 18.5076 48.5341 24.1607 46.8294 29.9538C46.4454 31.2588 46.1905 32.9554 45.796 34.1029C47.0753 33.8736 49.2571 33.9393 50.6471 33.9417C60.3422 33.9584 69.6826 36.4761 77.8035 41.8268C78.982 42.6034 81.9061 44.7931 82.8666 45.6806ZM22.6984 111.372C24.4714 110.705 28.95 105.955 30.4372 104.492L40.7102 94.5155C42.199 93.0508 45.7309 89.4118 47.2431 88.2191C46.0821 87.0941 44.9446 85.4928 44.0188 84.1455C35.6805 72.0102 33.4138 56.9933 35.2381 42.5964C35.3634 41.6077 36.2934 38.5287 36.1122 37.9319C35.9712 37.9137 35.9308 37.8894 35.8049 37.9207C33.7944 38.7552 32.0377 39.2743 30.0877 40.2917C15.4183 47.9385 10.2191 64.5504 10.0251 80.0756C9.99042 82.849 10.4328 85.5377 10.6788 88.264C11.0626 92.6738 12.0849 96.8706 13.4401 101.074C14.0806 103.06 14.6126 105.081 15.4715 106.993C17.0512 110.51 18.9135 111.836 22.6984 111.372ZM68.3096 67.3815C70.107 65.7571 78.2097 58.172 79.0562 56.473C78.0997 52.5211 72.5135 47.2263 69.3682 44.5761C64.2637 40.275 57.5683 37.0106 50.8405 36.5639C49.1253 36.45 46.8945 36.7124 45.2804 36.3952C45.1576 39.6174 44.8554 42.7553 44.8266 45.9874C44.7926 53.9994 46.1614 61.9554 48.8714 69.4951C50.087 72.9611 51.3485 77.5986 55.8182 77.62C59.3786 77.6371 62.6626 72.5389 65.2996 70.3761C65.9891 69.8104 67.7566 68.0379 68.3096 67.3815Z" fill="#FEFEFE" style="fill:#FEFEFE;fill:color(display-p3 0.9961 0.9961 0.9961);fill-opacity:1;"/>
<path d="M125.343 20.9981C126.316 21.9517 127.673 24.469 128.29 25.7028C132.185 33.6092 134.294 42.275 134.47 51.0871C134.705 72.9327 124.091 93.3426 102.978 101.365C101.088 102.083 99.1692 102.405 97.3084 103.235C92.683 120.09 79.4118 133.118 62.3771 137.114C60.7367 137.499 56.8665 137.67 55.466 138.358H43.8196C41.5566 137.653 39.3307 137.482 37.034 136.979C31.2155 135.7 25.7425 133.133 20.856 129.753C20.3134 129.377 17.0875 127.299 17.4468 126.709C18.3762 125.183 21.9722 121.761 23.4787 121.06C24.8899 121.973 26.0524 123.472 27.231 124.645C35.6634 133.034 45.2939 136.843 57.1421 135.725C68.0222 134.699 76.6653 129.161 82.4896 120.151C84.5745 116.88 86.1727 113.323 87.2343 109.592C87.5131 108.595 88.4131 104.955 88.6927 104.326C87.08 104.483 85.3219 104.452 83.6604 104.432C72.6334 104.302 61.818 101.066 53.1736 94.0577C52.7634 93.7249 52.2473 93.2978 52.0473 92.8319C52.2666 92.1691 56.7753 87.9145 57.4367 87.465C58.6904 86.6126 61.5799 90.4267 62.6404 91.4249C70.0962 98.4427 78.7121 102.532 89.1204 101.8C90.1142 92.6136 89.9406 84.1393 87.4818 75.1978C87.2465 74.3419 87.2047 73.5075 86.9588 72.7471C86.3356 70.8205 85.6323 68.9087 84.9193 67.0157C84.408 65.6582 83.5327 63.8535 83.1366 62.5142C84.0317 61.1166 89.0093 56.101 90.4108 55.0802C91.2642 54.9696 92.4615 57.5724 92.8415 58.258C96.1667 64.2566 98.641 71.9315 99.423 78.7277C100.185 85.3506 99.883 94.3496 97.9894 100.75C99.3596 100.273 101.563 99.5674 102.794 98.9743C110.171 95.4205 116.093 89.2647 119.588 81.8305C124.72 70.9157 125.153 57.8262 123.344 46.0538C122.832 42.7264 121.344 38.2655 120.352 35.0387C120.007 33.9191 117.7 28.6053 117.955 28.2679C119.136 26.7077 123.794 22.1136 125.343 20.9981Z" fill="#FEFEFE" style="fill:#FEFEFE;fill:color(display-p3 0.9961 0.9961 0.9961);fill-opacity:1;"/>
</g>
<defs>
<clipPath id="clip0_3_6">
<rect width="134.676" height="138.358" fill="white" style="fill:white;fill-opacity:1;"/>
</clipPath>
</defs>
</svg>
